<?xml version="1.0" encoding="iso-8859-1"?>
<!-- Generator: Adobe Illustrator 16.0.0, SVG Export Plug-In . SVG Version: 6.00 Build 0)  -->
<!DOCTYPE svg PUBLIC "-//W3C//DTD SVG 1.1//EN" "http://www.w3.org/Graphics/SVG/1.1/DTD/svg11.dtd">
<svg version="1.1" id="Capa_1" xmlns="http://www.w3.org/2000/svg" xmlns:xlink="http://www.w3.org/1999/xlink" x="0px" y="0px"
	 width="61.589px" height="61.589px" viewBox="0 0 61.589 61.589" style="enable-background:new 0 0 61.589 61.589;"
	 xml:space="preserve">
<g>
	<g>
		<path d="M41.287,7.067C31.857-2.356,16.51-2.356,7.08,7.072c-9.441,9.439-9.439,24.779,0,34.219
			c8.839,8.834,22.827,9.276,32.327,1.535l3.929,3.925l-1.144,1.144l13.696,13.695l5.7-5.7L47.893,42.191l-1.136,1.139l-3.937-3.935
			C50.571,29.903,50.143,15.922,41.287,7.067z M40.281,37.458l-2.824,2.824c-8.228,6.772-20.404,6.414-28.091-1.272
			c-8.178-8.173-8.18-21.483,0-29.652c8.171-8.173,21.474-8.173,29.642-0.004C46.7,17.044,47.059,29.221,40.281,37.458z"/>
		<g>
			<path d="M24.035,21.58c-3.574,0-9.973,5.21-9.973,11.64c0,6.431,4.462,1.673,9.973,1.673c5.509,0,9.971,4.758,9.971-1.673
				C34.006,26.79,27.612,21.582,24.035,21.58z"/>
			<path d="M32.393,15.829c-0.691,2.578-2.762,4.261-4.624,3.762c-1.861-0.497-2.811-2.993-2.122-5.568
				c0.689-2.58,2.76-4.261,4.624-3.764C32.131,10.758,33.082,13.251,32.393,15.829z M22.425,14.027
				c0.689,2.578-0.258,5.071-2.121,5.568c-1.861,0.498-3.931-1.186-4.622-3.764c-0.689-2.575,0.26-5.068,2.122-5.568
				C19.665,9.766,21.734,11.449,22.425,14.027z M10.208,18.297c1.478-0.853,3.634,0.114,4.813,2.16
				c1.182,2.044,0.94,4.396-0.536,5.249c-1.478,0.854-3.636-0.114-4.815-2.158C8.488,21.502,8.729,19.152,10.208,18.297z
				 M33.059,20.459c1.182-2.044,3.335-3.013,4.813-2.158c1.477,0.854,1.716,3.205,0.534,5.249c-1.18,2.044-3.337,3.013-4.813,2.158
				C32.113,24.853,31.873,22.503,33.059,20.459z"/>
		</g>
	</g>
</g>
<g>
</g>
<g>
</g>
<g>
</g>
<g>
</g>
<g>
</g>
<g>
</g>
<g>
</g>
<g>
</g>
<g>
</g>
<g>
</g>
<g>
</g>
<g>
</g>
<g>
</g>
<g>
</g>
<g>
</g>
</svg>
