<svg fill="#000000" height="30" viewBox="0 0 30 30" width="30" xmlns="http://www.w3.org/2000/svg">
<path d="m 0.5,24.005625 29,0 c 0.277,0 0.5,0.223 0.5,0.5 0,0.277 -0.223,0.5 -0.5,0.5 l -29,0 c -0.277,0 -0.5,-0.223 -0.5,-0.5 0,-0.277 0.223,-0.5 0.5,-0.5 z m 0,-10.002813 29,0 c 0.277,0 0.5,0.223 0.5,0.5 0,0.277 -0.223,0.5 -0.5,0.5 l -29,0 c -0.277,0 -0.5,-0.223 -0.5,-0.5 0,-0.277 0.223,-0.5 0.5,-0.5 z M 0.5,4 29.5,4 C 29.777,4 30,4.223 30,4.5 30,4.777 29.777,5 29.5,5 L 0.5,5 C 0.223,5 0,4.777 0,4.5 0,4.223 0.223,4 0.5,4 Z"/>
</svg>