<?xml version="1.0" encoding="iso-8859-1"?>
<!-- Generator: Adobe Illustrator 19.0.0, SVG Export Plug-In . SVG Version: 6.00 Build 0)  -->
<svg version="1.1" id="Layer_1" xmlns="http://www.w3.org/2000/svg" xmlns:xlink="http://www.w3.org/1999/xlink" x="0px" y="0px"
	 viewBox="0 0 511.999 511.999" style="enable-background:new 0 0 511.999 511.999;" xml:space="preserve">
<g>
	<g>
		<rect x="430.733" y="247.285" transform="matrix(0.707 -0.7072 0.7072 0.707 -51.9254 384.909)" width="15.672" height="15.672"/>
	</g>
</g>
<g>
	<g>
		
			<rect x="362.692" y="378.409" transform="matrix(0.7071 -0.7071 0.7071 0.7071 -164.5914 375.1317)" width="15.672" height="15.672"/>
	</g>
</g>
<g>
	<g>
		
			<rect x="426.751" y="393.093" transform="matrix(0.7071 -0.7071 0.7071 0.7071 -156.2123 424.7285)" width="15.672" height="15.672"/>
	</g>
</g>
<g>
	<g>
		
			<rect x="302.64" y="203.965" transform="matrix(0.7071 -0.7071 0.7071 0.7071 -58.8297 281.5745)" width="15.672" height="15.672"/>
	</g>
</g>
<g>
	<g>
		
			<rect x="296.751" y="311.825" transform="matrix(0.707 -0.7072 0.7072 0.707 -136.8244 309.065)" width="15.672" height="15.672"/>
	</g>
</g>
<g>
	<g>
		<rect x="406.097" y="189.17" transform="matrix(0.707 -0.7072 0.7072 0.707 -18.044 350.4585)" width="15.672" height="15.672"/>
	</g>
</g>
<g>
	<g>
		<path d="M312.433,40.439c-24.632-24.63-62.822-32.356-107.546-21.743c-43.368,10.29-88.033,36.74-125.77,74.475
			c-37.736,37.736-64.185,82.402-74.476,125.77c-10.611,44.72-2.89,82.913,21.743,107.546
			c17.368,17.368,41.683,26.351,70.269,26.351c10.178,0,20.901-1.14,32.039-3.446c40.938-8.472,83.96-31.976,121.143-66.18
			l-10.609-11.534c-71.703,65.956-160.328,85.164-201.761,43.727c-0.69-0.69-1.36-1.395-2.018-2.112
			c12.173-8.769,22.468-13.625,33.27-18.708c17.994-8.469,36.6-17.227,63.578-44.203c26.971-26.973,35.73-45.581,44.2-63.576
			c8.26-17.552,16.064-34.129,41.104-59.168c25.041-25.042,41.618-32.846,59.168-41.106c11.037-5.196,22.404-10.557,35.799-20.208
			c5.028,8.918,8.285,19.216,9.718,30.8l15.554-1.922C335.09,72.975,326.542,54.55,312.433,40.439z M270.092,72.354
			c-17.994,8.469-36.6,17.228-63.576,44.203c-26.972,26.973-35.731,45.581-44.201,63.577c-8.261,17.551-16.064,34.128-41.103,59.167
			c-25.043,25.043-41.619,32.846-59.17,41.105c-11.033,5.194-22.397,10.553-35.785,20.196c-11.38-20.165-13.694-47.162-6.367-78.04
			c9.63-40.582,34.599-82.597,70.31-118.306c35.711-35.711,77.726-60.68,118.305-70.309c39.233-9.308,72.202-3.068,92.845,17.576
			c0.691,0.691,1.362,1.396,2.021,2.114C291.193,62.41,280.895,67.268,270.092,72.354z"/>
	</g>
</g>
<g>
	<g>
		<path d="M475.73,154.084c-24.117-39.124-56.585-60.671-91.42-60.671s-67.303,21.547-91.42,60.671
			c-23.389,37.942-36.27,88.227-36.27,141.595c0,53.366,12.88,103.652,36.27,141.595c24.117,39.124,56.585,60.672,91.42,60.672
			s67.302-21.547,91.419-60.672c23.39-37.943,36.271-88.227,36.271-141.595C511.999,242.312,499.119,192.026,475.73,154.084z
			 M365.916,479.728c-22.306-6.209-43.033-23.663-59.685-50.679c-21.886-35.503-33.939-82.868-33.939-133.37
			s12.053-97.868,33.939-133.371c21.156-34.322,48.886-53.223,78.078-53.223c0.977,0,1.951,0.025,2.924,0.067
			c-2.406,14.813-6.253,25.53-10.297,36.765c-6.734,18.714-13.698,38.064-13.698,76.211c0,38.145,6.965,57.495,13.7,76.209
			c6.569,18.252,12.774,35.491,12.774,70.901c0,35.416-6.205,52.655-12.774,70.904C372.809,451.618,368.564,463.442,365.916,479.728
			z M462.388,429.05c-21.156,34.322-48.886,53.223-78.078,53.223c-0.976,0-1.949-0.024-2.92-0.067
			c2.406-14.808,6.252-25.523,10.296-36.755c6.735-18.713,13.7-38.063,13.7-76.212c0-38.145-6.965-57.495-13.7-76.209
			c-6.569-18.252-12.774-35.491-12.774-70.901c0-35.414,6.204-52.654,12.773-70.903c4.13-11.477,8.376-23.304,11.024-39.594
			c22.304,6.211,43.029,23.664,59.681,50.678c21.886,35.503,33.939,82.869,33.939,133.371
			C496.327,346.18,484.274,393.546,462.388,429.05z"/>
	</g>
</g>
<g>
	<g>
		<rect x="239.68" y="175.049" width="15.672" height="15.672"/>
	</g>
</g>
<g>
	<g>
		<rect x="98.87" y="219.674" width="15.672" height="15.672"/>
	</g>
</g>
<g>
	<g>
		<rect x="133.778" y="275.352" width="15.672" height="15.672"/>
	</g>
</g>
<g>
	<g>
		<rect x="179.75" y="53.851" width="15.672" height="15.672"/>
	</g>
</g>
<g>
	<g>
		<rect x="99.299" y="125.943" width="15.672" height="15.672"/>
	</g>
</g>
<g>
	<g>
		<rect x="263.335" y="116.54" width="15.672" height="15.672"/>
	</g>
</g>
<g>
</g>
<g>
</g>
<g>
</g>
<g>
</g>
<g>
</g>
<g>
</g>
<g>
</g>
<g>
</g>
<g>
</g>
<g>
</g>
<g>
</g>
<g>
</g>
<g>
</g>
<g>
</g>
<g>
</g>
</svg>
